<svg width="6655" height="1316" viewBox="0 0 6655 1316" fill="none" xmlns="http://www.w3.org/2000/svg">
<path d="M6174.6 128.113L6042 128.113V296.55H6228.92V174.97C6230.53 148.738 6208.5 126.209 6174.6 128.113Z" fill="black"/>
<path d="M1508.88 1315.66C1435.89 1315.66 1368.19 1298.59 1305.79 1264.45C1244.57 1229.13 1195.12 1179.68 1157.45 1116.1C1120.95 1051.35 1102.7 976 1102.7 890.054C1102.7 805.286 1118.6 731.114 1150.39 667.538C1183.35 603.962 1229.86 554.514 1289.9 519.194C1349.94 483.874 1420.58 466.214 1501.82 466.214C1548.91 466.214 1593.06 474.456 1634.27 490.938C1675.48 507.421 1710.21 528.024 1738.46 552.748C1766.72 576.295 1785.56 599.842 1794.98 623.388L1798.51 487.406H1980.41V1298H1800.27L1796.74 1154.95C1776.73 1197.34 1740.23 1235.01 1687.25 1267.98C1634.27 1299.77 1574.81 1315.66 1508.88 1315.66ZM1540.67 1156.72C1607.78 1156.72 1664.29 1133.76 1710.21 1087.85C1756.12 1040.75 1779.08 979.532 1779.08 904.182V891.82C1779.08 841.195 1768.49 795.868 1747.29 755.838C1726.1 715.809 1697.26 684.61 1660.76 662.24C1624.26 639.871 1584.23 628.686 1540.67 628.686C1465.32 628.686 1407.04 653.41 1365.84 702.858C1324.63 751.129 1304.03 814.116 1304.03 891.82C1304.03 970.702 1324.04 1034.87 1364.07 1084.31C1405.28 1132.58 1464.14 1156.72 1540.67 1156.72Z" fill="black"/>
<path d="M2199.8 -0.00976562H2388.77V1298H2199.8V-0.00976562Z" fill="black"/>
<path d="M2619.37 -0.00976562H2808.33V648.995V1298H2619.37V648.995V-0.00976562Z" fill="black"/>
<path d="M3400.96 1315.66C3317.37 1315.66 3243.2 1296.82 3178.44 1259.15C3113.69 1221.47 3063.65 1170.26 3028.33 1105.51C2993.01 1040.75 2975.35 968.936 2975.35 890.054C2975.35 812.35 2992.42 741.122 3026.57 676.368C3061.89 611.615 3111.92 560.401 3176.68 522.726C3241.43 485.052 3316.19 466.214 3400.96 466.214C3485.73 466.214 3559.9 485.052 3623.48 522.726C3688.23 560.401 3737.68 611.615 3771.82 676.368C3807.14 741.122 3824.8 812.35 3824.8 890.054C3824.8 968.936 3807.14 1040.75 3771.82 1105.51C3736.5 1170.26 3686.46 1221.47 3621.71 1259.15C3558.13 1296.82 3484.55 1315.66 3400.96 1315.66ZM3406.26 1160.25C3474.54 1160.25 3528.11 1134.94 3566.96 1084.31C3606.99 1033.69 3627.01 970.113 3627.01 893.586C3627.01 817.06 3605.81 752.895 3563.43 701.092C3521.05 648.112 3465.12 621.622 3395.66 621.622C3328.55 621.622 3274.4 647.524 3233.19 699.326C3193.16 751.129 3173.15 815.882 3173.15 893.586C3173.15 968.936 3194.93 1032.51 3238.49 1084.31C3282.05 1134.94 3337.97 1160.25 3406.26 1160.25Z" fill="black"/>
<path d="M4469.98 847.67L4229.81 1298H4196.25L3855.41 487.406H4060.27L4235.1 958.928L4466.45 487.406H4473.51L4706.63 955.396L4881.46 487.406H5082.78L4743.71 1298H4710.16L4469.98 847.67Z" fill="black"/>
<path d="M5523.32 1315.66C5426.78 1315.66 5346.13 1296.82 5281.38 1259.15C5216.62 1220.3 5168.94 1169.08 5138.33 1105.51C5107.72 1040.75 5092.41 970.113 5092.41 893.586C5092.41 807.641 5110.07 732.292 5145.39 667.538C5181.89 602.785 5231.93 553.337 5295.5 519.194C5359.08 483.874 5430.9 466.214 5510.96 466.214C5635.75 466.214 5728.17 500.946 5788.22 570.408C5849.44 638.694 5880.05 735.235 5880.05 860.032C5880.05 891.82 5878.28 924.786 5874.75 958.928H5291.97C5304.92 1030.75 5330.24 1082.55 5367.91 1114.34C5406.76 1146.12 5460.33 1162.02 5528.62 1162.02C5585.13 1162.02 5631.63 1157.31 5668.13 1147.89C5704.63 1138.47 5738.18 1125.52 5768.79 1109.04L5827.07 1245.02C5797.64 1263.86 5757.61 1280.34 5706.98 1294.47C5656.36 1308.6 5595.14 1315.66 5523.32 1315.66ZM5694.62 826.478C5695.8 753.484 5679.9 702.27 5646.94 672.836C5613.97 642.226 5566.88 626.92 5505.66 626.92C5382.04 626.92 5310.81 693.44 5291.97 826.478H5694.62Z" fill="black"/>
<path d="M6465.94 -0.00976562H6654.9V1298H6465.94V-0.00976562Z" fill="black"/>
<path d="M6041.16 487.406H6238.95V1298H6041.16V487.406Z" fill="black"/>
<path fill-rule="evenodd" clip-rule="evenodd" d="M744.276 1143.34C633.682 1253.89 483.686 1316 327.283 1316L327.283 726.5L327.283 137C483.686 137 633.683 199.108 744.276 309.661C854.869 420.213 917 570.155 917 726.5C917 882.845 854.869 1032.79 744.276 1143.34ZM99.3016 137H0V865.097C0 949.267 17.0576 998.098 94.9497 998.098H187.106V265.247C187.106 199.455 187.105 137 99.3016 137ZM103.978 1132.3H0V1316H187.106V1217.88C187.106 1161.69 161.827 1132.3 103.978 1132.3Z" fill="black"/>
</svg>
