<svg width="6306" height="6306" viewBox="0 0 6306 6306" fill="none" xmlns="http://www.w3.org/2000/svg">
<rect width="6306" height="6306" rx="3060" fill="black"/>
<path fill-rule="evenodd" clip-rule="evenodd" d="M4567.35 4525.35C4203.25 4889.45 3709.42 5094 3194.5 5094V3152.5L3194.5 1211C3709.42 1211 4203.25 1415.55 4567.35 1779.65C4931.45 2143.75 5136 2637.58 5136 3152.5C5136 3667.42 4931.45 4161.25 4567.35 4525.35ZM2443.93 1211H2117V3608.97C2117 3886.18 2173.16 4047 2429.6 4047H2733V1633.38C2733 1416.69 2733 1211 2443.93 1211ZM2459.32 4489H2117V5094H2733V4770.84C2733 4585.77 2649.78 4489 2459.32 4489Z" fill="white"/>
</svg>
